<svg width="30" height="22" viewBox="0 0 30 22" fill="none" xmlns="http://www.w3.org/2000/svg">
<path d="M29.69 7.24499L26.265 20.43C26.1654 20.8118 25.9421 21.1499 25.63 21.3914C25.3179 21.6329 24.9346 21.7643 24.54 21.765H5.46001C5.0654 21.7643 4.68212 21.6329 4.37005 21.3914C4.05797 21.1499 3.83467 20.8118 3.73501 20.43L0.310012 7.24499C0.226727 6.92762 0.232679 6.59342 0.327212 6.27922C0.421745 5.96502 0.601189 5.68302 0.845766 5.4643C1.09034 5.24557 1.39056 5.09862 1.71333 5.03963C2.03609 4.98064 2.36888 5.01191 2.67501 5.12999L8.35001 7.31499C8.4074 7.33731 8.47044 7.34061 8.52985 7.3244C8.58926 7.3082 8.6419 7.27336 8.68001 7.22499L13.595 0.924991C13.7609 0.71026 13.9738 0.53641 14.2174 0.416796C14.4609 0.297181 14.7287 0.234985 15 0.234985C15.2714 0.234985 15.5391 0.297181 15.7827 0.416796C16.0262 0.53641 16.2391 0.71026 16.405 0.924991L21.32 7.22499C21.3581 7.27336 21.4108 7.3082 21.4702 7.3244C21.5296 7.34061 21.5926 7.33731 21.65 7.31499L27.325 5.12999C27.631 5.0171 27.962 4.98968 28.2824 5.05067C28.6028 5.11166 28.9005 5.25876 29.1436 5.47618C29.3868 5.69359 29.5661 5.97312 29.6623 6.28475C29.7586 6.59638 29.7682 6.92833 29.69 7.24499Z" fill="url(#paint0_linear_2_426)"/>
<defs>
<linearGradient id="paint0_linear_2_426" x1="0.251012" y1="11" x2="29.7585" y2="11" gradientUnits="userSpaceOnUse">
<stop stop-color="#FFDE00"/>
<stop offset="1" stop-color="#FD5900"/>
</linearGradient>
</defs>
</svg>